{"asset":{"version":"2.0","generator":"Unity 2022.2.14f1 glTFast 5.0.0"},"nodes":[{"name":"Box001","mesh":0,"translation":[11.2096472,2.017354,5.187657],"rotation":[-0.7071068,0,0,0.7071067],"scale":[0.314454764,0.314454734,0.314454734]},{"name":"elevator-door-left","mesh":1,"translation":[11.742,2.0082314,4.023936],"rotation":[-0.7071068,0,0,0.7071067],"scale":[0.314454764,0.314454734,0.314454734]},{"name":"elevator-lights","mesh":2,"translation":[11.2103157,3.61417484,5.11462641],"rotation":[-0.7071068,0,0,0.7071067],"scale":[0.314454764,0.314454734,0.314454734]},{"name":"elevator-door-right","mesh":3,"translation":[10.805,2.00839567,4.023889],"rotation":[-0.7071068,0,0,0.7071067],"scale":[0.314454764,0.314454734,0.314454734]},{"name":"open/close -in","mesh":4,"translation":[0.02470205,0.007,-0.788]},{"name":"Buttons-in","mesh":5,"translation":[0.0377127044,-0.014,-0.079]},{"name":"Panel-inner","children":[4,5],"mesh":6,"translation":[10.354,2.4604454,4.351],"rotation":[-0.7071068,0,0,0.7071067],"scale":[0.314454764,0.314454734,0.314454734]},{"name":"roof","mesh":7,"translation":[11.2094755,3.628119,5.0588336],"rotation":[-0.7071068,0,0,0.7071067],"scale":[0.314454764,0.314454734,0.314454734]},{"name":"open/close -out","mesh":4,"translation":[0.02470205,0.007,-0.788]},{"name":"Buttons-out","mesh":5,"translation":[0.0377127044,-0.014,-0.079]},{"name":"Panel-outer","children":[8,9],"mesh":6,"translation":[10.19,2.4604454,3.897],"rotation":[-0.5,0.5,0.5,0.5],"scale":[0.314454764,0.314454734,0.314454734]},{"name":"elevator","children":[0,1,2,3,6,7,10],"translation":[-23.4605846,0,-3.425036]},{"name":"Chandelier_01.002","mesh":8,"translation":[-15.461,3.695,-3.4569397],"rotation":[8.14603354E-08,0,0,1],"scale":[0.01,0.01,0.01]},{"name":"Chandelier_01.002 (1)","mesh":8,"translation":[-9.101,3.714,-1.705],"rotation":[8.14603354E-08,0,0,1],"scale":[0.01,0.01,0.01]},{"name":"Chandelier_01.002 (2)","mesh":8,"translation":[-8.947,3.719,-6.021],"rotation":[8.14603354E-08,0,0,1],"scale":[0.01,0.01,0.01]},{"name":"modern_arm_chair_01","mesh":9,"translation":[-18.795,0.643,-0.34],"rotation":[0,-0.7072302,-0.7069834,0]},{"name":"modern_wooden_cabinet_door_l","mesh":10,"translation":[-1.14993286,-0.229954243,0.172278777]},{"name":"modern_wooden_cabinet_door_r","mesh":11,"translation":[1.18998528,-0.2299552,0.172278777],"rotation":[4.371139E-08,0,-1,-7.10542736E-15]},{"name":"modern_wooden_cabinet_body","children":[16,17],"mesh":12,"translation":[-17.072,0.62,0.08],"rotation":[0,-0.7072302,-0.7069834,0]},{"name":"throw_pillows_01_pillow01","mesh":13,"translation":[0.011,-0.032,0.042],"rotation":[0.588798761,-0.5713907,0.420557171,0.387247235]},{"name":"throw_pillows_01_pillow02","mesh":14,"translation":[0.243,-0.061,0.104],"rotation":[-0.238798574,-0.133886889,0.05265396,0.9603526],"scale":[0.99999994,1,0.99999994]},{"name":"throw_pillows_01_2k","children":[19,20],"translation":[-16.1845837,0.718,-0.39],"rotation":[0,-0.999229848,0,-0.0392405353],"scale":[1.55,1.55,1.55]},{"name":"modern_arm_chair_01 (1)","mesh":9,"translation":[-15.3180008,0.616,0.07525349],"rotation":[0.01812646,-0.70687443,-0.70687443,-0.01812646]},{"name":"WoodenTable_02","mesh":15,"translation":[-18.319,0.579,-1.189],"rotation":[-0.7071068,0,0,0.7071067],"scale":[1.4,1.39999986,1.39999986]}],"extensionsRequired":["KHR_texture_transform"],"extensionsUsed":["KHR_texture_transform"],"buffers":[{"uri":"elevator.bin","byteLength":3118016}],"bufferViews":[{"buffer":0,"byteLength":2280},{"buffer":0,"byteLength":14880,"byteOffset":2280,"byteStride":48},{"buffer":0,"byteLength":624,"byteOffset":17160},{"buffer":0,"byteLength":3360,"byteOffset":17784,"byteStride":48},{"buffer":0,"byteLength":180,"byteOffset":21144},{"buffer":0,"byteLength":1104,"byteOffset":21324,"byteStride":48},{"buffer":0,"byteLength":624,"byteOffset":22428},{"buffer":0,"byteLength":3360,"byteOffset":23052,"byteStride":48},{"buffer":0,"byteLength":1152,"byteOffset":26412},{"buffer":0,"byteLength":5472,"byteOffset":27564,"byteStride":48},{"buffer":0,"byteLength":4674,"byteOffset":33036},{"buffer":0,"byteLength":23952,"byteOffset":37712,"byteStride":48},{"buffer":0,"byteLength":1296,"byteOffset":61664},{"buffer":0,"byteLength":6048,"byteOffset":62960,"byteStride":48},{"buffer":0,"byteLength":1176,"byteOffset":69008},{"buffer":0,"byteLength":7008,"byteOffset":70184,"byteStride":48},{"buffer":0,"byteLength":161160,"byteOffset":77192},{"buffer":0,"byteLength":1078704,"byteOffset":238352,"byteStride":48},{"buffer":0,"byteLength":53496,"byteOffset":1317056},{"buffer":0,"byteLength":280848,"byteOffset":1370552,"byteStride":48},{"buffer":0,"byteLength":19728,"byteOffset":1651400},{"buffer":0,"byteLength":174720,"byteOffset":1671128,"byteStride":48},{"buffer":0,"byteLength":19728,"byteOffset":1845848},{"buffer":0,"byteLength":174816,"byteOffset":1865576,"byteStride":48},{"buffer":0,"byteLength":110400,"byteOffset":2040392},{"buffer":0,"byteLength":697488,"byteOffset":2150792,"byteStride":48},{"buffer":0,"byteLength":19428,"byteOffset":2848280},{"buffer":0,"byteLength":82416,"byteOffset":2867708,"byteStride":48},{"buffer":0,"byteLength":18744,"byteOffset":2950124},{"buffer":0,"byteLength":79344,"byteOffset":2968868,"byteStride":48},{"buffer":0,"byteLength":9084,"byteOffset":3048212},{"buffer":0,"byteLength":60720,"byteOffset":3057296,"byteStride":48}],"accessors":[{"bufferView":1,"componentType":5126,"count":310,"type":"VEC3","max":[2.88439083,3.82039928,5.07932949],"min":[-2.88082981,-3.32880116,-4.359803]},{"bufferView":1,"componentType":5126,"count":310,"type":"VEC3","byteOffset":12},{"bufferView":1,"componentType":5126,"count":310,"type":"VEC4","byteOffset":24},{"bufferView":1,"componentType":5126,"count":310,"type":"VEC2","byteOffset":40},{"bufferView":0,"componentType":5123,"count":1140,"type":"SCALAR"},{"bufferView":3,"componentType":5126,"count":70,"type":"VEC3","max":[1.20479536,0.0627985,4.12528229],"min":[-0.698132038,-0.0560965538,-4.366007]},{"bufferView":3,"componentType":5126,"count":70,"type":"VEC3","byteOffset":12},{"bufferView":3,"componentType":5126,"count":70,"type":"VEC4","byteOffset":24},{"bufferView":3,"componentType":5126,"count":70,"type":"VEC2","byteOffset":40},{"bufferView":2,"componentType":5123,"count":312,"type":"SCALAR"},{"bufferView":5,"componentType":5126,"count":23,"type":"VEC3","max":[0.8708472,0.9098718,0.016711235],"min":[-0.871546745,-0.890772343,-0.01127243]},{"bufferView":5,"componentType":5126,"count":23,"type":"VEC3","byteOffset":12},{"bufferView":5,"componentType":5126,"count":23,"type":"VEC4","byteOffset":24},{"bufferView":5,"componentType":5126,"count":23,"type":"VEC2","byteOffset":40},{"bufferView":4,"componentType":5123,"count":90,"type":"SCALAR"},{"bufferView":7,"componentType":5126,"count":70,"type":"VEC3","max":[0.697493553,0.06265092,4.12476063],"min":[-1.20543385,-0.0562441349,-4.36652851]},{"bufferView":7,"componentType":5126,"count":70,"type":"VEC3","byteOffset":12},{"bufferView":7,"componentType":5126,"count":70,"type":"VEC4","byteOffset":24},{"bufferView":7,"componentType":5126,"count":70,"type":"VEC2","byteOffset":40},{"bufferView":6,"componentType":5123,"count":312,"type":"SCALAR"},{"bufferView":9,"componentType":5126,"count":114,"type":"VEC3","max":[0.009899139,0.339673281,0.0371999741],"min":[-0.0126419067,-0.337633252,-0.0387992859]},{"bufferView":9,"componentType":5126,"count":114,"type":"VEC3","byteOffset":12},{"bufferView":9,"componentType":5126,"count":114,"type":"VEC4","byteOffset":24},{"bufferView":9,"componentType":5126,"count":114,"type":"VEC2","byteOffset":40},{"bufferView":8,"componentType":5123,"count":576,"type":"SCALAR"},{"bufferView":11,"componentType":5126,"count":499,"type":"VEC3","max":[0.0154266357,0.334429979,0.367789268],"min":[-0.02003479,-0.2894683,-0.43469286]},{"bufferView":11,"componentType":5126,"count":499,"type":"VEC3","byteOffset":12},{"bufferView":11,"componentType":5126,"count":499,"type":"VEC4","byteOffset":24},{"bufferView":11,"componentType":5126,"count":499,"type":"VEC2","byteOffset":40},{"bufferView":10,"componentType":5123,"count":2337,"type":"SCALAR"},{"bufferView":13,"componentType":5126,"count":126,"type":"VEC3","max":[0.0379962921,0.5338582,1.21989727],"min":[-0.029882431,-0.5301608,-1.16879368]},{"bufferView":13,"componentType":5126,"count":126,"type":"VEC3","byteOffset":12},{"bufferView":13,"componentType":5126,"count":126,"type":"VEC4","byteOffset":24},{"bufferView":13,"componentType":5126,"count":126,"type":"VEC2","byteOffset":40},{"bufferView":12,"componentType":5123,"count":648,"type":"SCALAR"},{"bufferView":15,"componentType":5126,"count":146,"type":"VEC3","max":[2.84240913,3.385072,0.103879929],"min":[-2.837757,-3.75553584,-0.09687519]},{"bufferView":15,"componentType":5126,"count":146,"type":"VEC3","byteOffset":12},{"bufferView":15,"componentType":5126,"count":146,"type":"VEC4","byteOffset":24},{"bufferView":15,"componentType":5126,"count":146,"type":"VEC2","byteOffset":40},{"bufferView":14,"componentType":5123,"count":588,"type":"SCALAR"},{"bufferView":17,"componentType":5126,"count":22473,"type":"VEC3","max":[37.34919,7.62939453E-06,41.3325958],"min":[-37.29638,-79.82708,-40.2223663]},{"bufferView":17,"componentType":5126,"count":22473,"type":"VEC3","byteOffset":12},{"bufferView":17,"componentType":5126,"count":22473,"type":"VEC4","byteOffset":24},{"bufferView":17,"componentType":5126,"count":22473,"type":"VEC2","byteOffset":40},{"bufferView":16,"componentType":5123,"count":79032,"type":"SCALAR"},{"bufferView":16,"componentType":5123,"count":1548,"type":"SCALAR","byteOffset":158064},{"bufferView":19,"componentType":5126,"count":5851,"type":"VEC3","max":[0.4135357,0.575451732,1.02323365],"min":[-0.406808734,-0.411109924,0.000381588936]},{"bufferView":19,"componentType":5126,"count":5851,"type":"VEC3","byteOffset":12},{"bufferView":19,"componentType":5126,"count":5851,"type":"VEC4","byteOffset":24},{"bufferView":19,"componentType":5126,"count":5851,"type":"VEC2","byteOffset":40},{"bufferView":18,"componentType":5123,"count":16824,"type":"SCALAR"},{"bufferView":18,"componentType":5123,"count":9924,"type":"SCALAR","byteOffset":33648},{"bufferView":21,"componentType":5126,"count":3640,"type":"VEC3","max":[1.13966286,0.3422129,0.476318538],"min":[-0.0500538349,-0.0102189779,0]},{"bufferView":21,"componentType":5126,"count":3640,"type":"VEC3","byteOffset":12},{"bufferView":21,"componentType":5126,"count":3640,"type":"VEC4","byteOffset":24},{"bufferView":21,"componentType":5126,"count":3640,"type":"VEC2","byteOffset":40},{"bufferView":20,"componentType":5123,"count":9864,"type":"SCALAR"},{"bufferView":23,"componentType":5126,"count":3642,"type":"VEC3","max":[1.179333,0.01000002,0.476318538],"min":[-0.0100002289,-0.342212766,0]},{"bufferView":23,"componentType":5126,"count":3642,"type":"VEC3","byteOffset":12},{"bufferView":23,"componentType":5126,"count":3642,"type":"VEC4","byteOffset":24},{"bufferView":23,"componentType":5126,"count":3642,"type":"VEC2","byteOffset":40},{"bufferView":22,"componentType":5123,"count":9864,"type":"SCALAR"},{"bufferView":25,"componentType":5126,"count":14531,"type":"VEC3","max":[1.22000027,0.269999981,0.68015933],"min":[-1.22000027,-0.249999985,1.680851E-05]},{"bufferView":25,"componentType":5126,"count":14531,"type":"VEC3","byteOffset":12},{"bufferView":25,"componentType":5126,"count":14531,"type":"VEC4","byteOffset":24},{"bufferView":25,"componentType":5126,"count":14531,"type":"VEC2","byteOffset":40},{"bufferView":24,"componentType":5123,"count":55200,"type":"SCALAR"},{"bufferView":27,"componentType":5126,"count":1717,"type":"VEC3","max":[0.3245271,0.4480542,0.08450961],"min":[-0.240589708,-0.00210505724,-0.2589276]},{"bufferView":27,"componentType":5126,"count":1717,"type":"VEC3","byteOffset":12},{"bufferView":27,"componentType":5126,"count":1717,"type":"VEC4","byteOffset":24},{"bufferView":27,"componentType":5126,"count":1717,"type":"VEC2","byteOffset":40},{"bufferView":26,"componentType":5123,"count":9714,"type":"SCALAR"},{"bufferView":29,"componentType":5126,"count":1653,"type":"VEC3","max":[0.259912431,0.4412424,0.161531061],"min":[-0.2588846,-0.00135135651,-0.124976955]},{"bufferView":29,"componentType":5126,"count":1653,"type":"VEC3","byteOffset":12},{"bufferView":29,"componentType":5126,"count":1653,"type":"VEC4","byteOffset":24},{"bufferView":29,"componentType":5126,"count":1653,"type":"VEC2","byteOffset":40},{"bufferView":28,"componentType":5123,"count":9372,"type":"SCALAR"},{"bufferView":31,"componentType":5126,"count":1265,"type":"VEC3","max":[0.150338233,0.150338247,0.417657018],"min":[-0.150338233,-0.150338218,-2.98023224E-08]},{"bufferView":31,"componentType":5126,"count":1265,"type":"VEC3","byteOffset":12},{"bufferView":31,"componentType":5126,"count":1265,"type":"VEC4","byteOffset":24},{"bufferView":31,"componentType":5126,"count":1265,"type":"VEC2","byteOffset":40},{"bufferView":30,"componentType":5123,"count":4542,"type":"SCALAR"}],"images":[{"name":"Box_normal.png","uri":"Box_normal.png","mimeType":"image/png"},{"name":"Box_albedo(1).jpg","uri":"Box_albedo(1).jpg","mimeType":"image/jpeg"},{"name":"Box_metallic.jpg","uri":"Box_metallic.jpg","mimeType":"image/jpeg"},{"name":"Default_normal.png","uri":"Default_normal.png","mimeType":"image/png"},{"name":"Default_albedo(4).jpg","uri":"Default_albedo(4).jpg","mimeType":"image/jpeg"},{"name":"Default_metallic.jpg","uri":"Default_metallic.jpg","mimeType":"image/jpeg"},{"name":"Panel_normal.png","uri":"Panel_normal.png","mimeType":"image/png"},{"name":"Panel_albedo.jpg","uri":"Panel_albedo.jpg","mimeType":"image/jpeg"},{"name":"Panel_metallic.jpg","uri":"Panel_metallic.jpg","mimeType":"image/jpeg"},{"name":"Chandelier_01_nor_gl_2k.png","uri":"Chandelier_01_nor_gl_2k.png","mimeType":"image/png"},{"name":"Chandelier_01_diff_2k.jpg","uri":"Chandelier_01_diff_2k.jpg","mimeType":"image/jpeg"},{"name":"Chandelier_01_metallic_2k.jpg","uri":"Chandelier_01_metallic_2k.jpg","mimeType":"image/jpeg"},{"name":"modern_arm_chair_01_legs_nor_gl_2k.png","uri":"modern_arm_chair_01_legs_nor_gl_2k.png","mimeType":"image/png"},{"name":"modern_arm_chair_01_legs_diff_2k.jpg","uri":"modern_arm_chair_01_legs_diff_2k.jpg","mimeType":"image/jpeg"},{"name":"modern_arm_chair_01_legs_metal_2k.jpg","uri":"modern_arm_chair_01_legs_metal_2k.jpg","mimeType":"image/jpeg"},{"name":"modern_arm_chair_01_pillow_nor_gl_2k.png","uri":"modern_arm_chair_01_pillow_nor_gl_2k.png","mimeType":"image/png"},{"name":"modern_arm_chair_01_pillow_diff_2k.jpg","uri":"modern_arm_chair_01_pillow_diff_2k.jpg","mimeType":"image/jpeg"},{"name":"modern_arm_chair_01_pillow_metal_2k.jpg","uri":"modern_arm_chair_01_pillow_metal_2k.jpg","mimeType":"image/jpeg"},{"name":"modern_wooden_cabinet_nor_gl_4k.png","uri":"modern_wooden_cabinet_nor_gl_4k.png","mimeType":"image/png"},{"name":"modern_wooden_cabinet_diff_4k.jpg","uri":"modern_wooden_cabinet_diff_4k.jpg","mimeType":"image/jpeg"},{"name":"modern_wooden_cabinet_rough_4k.jpg","uri":"modern_wooden_cabinet_rough_4k.jpg","mimeType":"image/jpeg"},{"name":"throw_pillows_01_nor_gl_2k.png","uri":"throw_pillows_01_nor_gl_2k.png","mimeType":"image/png"},{"name":"throw_pillows_01_diff_2k.jpg","uri":"throw_pillows_01_diff_2k.jpg","mimeType":"image/jpeg"},{"name":"throw_pillows_01_rough_2k.jpg","uri":"throw_pillows_01_rough_2k.jpg","mimeType":"image/jpeg"},{"name":"WoodenTable_02_nor_gl_2k.png","uri":"WoodenTable_02_nor_gl_2k.png","mimeType":"image/png"},{"name":"WoodenTable_02_diff_2k.jpg","uri":"WoodenTable_02_diff_2k.jpg","mimeType":"image/jpeg"},{"name":"WoodenTable_02_metallic_2k.jpg","uri":"WoodenTable_02_metallic_2k.jpg","mimeType":"image/jpeg"}],"materials":[{"name":"elevator box","pbrMetallicRoughness":{"baseColorTexture":{"index":1,"extensions":{"KHR_texture_transform":{"offset":[0,1],"scale":[1,-1]}}},"metallicRoughnessTexture":{"index":2,"extensions":{"KHR_texture_transform":{"offset":[0,1],"scale":[1,-1]}}}},"normalTexture":{"index":0,"extensions":{"KHR_texture_transform":{"offset":[0,1],"scale":[1,-1]}}},"occlusionTexture":{"index":2,"extensions":{"KHR_texture_transform":{"offset":[0,1],"scale":[1,-1]}}}},{"name":"default","pbrMetallicRoughness":{"roughnessFactor":0.263,"baseColorTexture":{"index":4,"extensions":{"KHR_texture_transform":{"offset":[0,1],"scale":[1,-1]}}},"metallicRoughnessTexture":{"index":5,"extensions":{"KHR_texture_transform":{"offset":[0,1],"scale":[1,-1]}}}},"normalTexture":{"index":3,"extensions":{"KHR_texture_transform":{"offset":[0,1],"scale":[1,-1]}}},"occlusionTexture":{"index":5,"extensions":{"KHR_texture_transform":{"offset":[0,1],"scale":[1,-1]}}}},{"name":"elevator light","pbrMetallicRoughness":{"metallicFactor":0,"roughnessFactor":0.5},"emissiveFactor":[1,1,1]},{"name":"panel","pbrMetallicRoughness":{"roughnessFactor":0.489,"baseColorTexture":{"index":7,"extensions":{"KHR_texture_transform":{"offset":[0,1],"scale":[1,-1]}}},"metallicRoughnessTexture":{"index":8,"extensions":{"KHR_texture_transform":{"offset":[0,1],"scale":[1,-1]}}}},"normalTexture":{"index":6,"extensions":{"KHR_texture_transform":{"offset":[0,1],"scale":[1,-1]}}},"occlusionTexture":{"index":8,"extensions":{"KHR_texture_transform":{"offset":[0,1],"scale":[1,-1]}}}},{"name":"rood","pbrMetallicRoughness":{"baseColorFactor":[0.380392134,0.254901946,0.164705843,1],"metallicFactor":0,"roughnessFactor":0.5}},{"name":"lamp","pbrMetallicRoughness":{"baseColorTexture":{"index":10,"extensions":{"KHR_texture_transform":{"offset":[0,1],"scale":[1,-1]}}},"metallicRoughnessTexture":{"index":11,"extensions":{"KHR_texture_transform":{"offset":[0,1],"scale":[1,-1]}}}},"normalTexture":{"index":9,"extensions":{"KHR_texture_transform":{"offset":[0,1],"scale":[1,-1]}}}},{"name":"lamps_classic_chandelier_1","pbrMetallicRoughness":{"baseColorFactor":[0.9063317,0.9063317,0.9063317,1],"metallicFactor":0,"roughnessFactor":0.322727263}},{"name":"legs","pbrMetallicRoughness":{"baseColorTexture":{"index":13,"extensions":{"KHR_texture_transform":{"offset":[0,1],"scale":[1,-1]}}},"metallicRoughnessTexture":{"index":14,"extensions":{"KHR_texture_transform":{"offset":[0,1],"scale":[1,-1]}}}},"normalTexture":{"index":12,"extensions":{"KHR_texture_transform":{"offset":[0,1],"scale":[1,-1]}}}},{"name":"pillow","pbrMetallicRoughness":{"roughnessFactor":0.415,"baseColorTexture":{"index":16,"extensions":{"KHR_texture_transform":{"offset":[0,1],"scale":[1,-1]}}},"metallicRoughnessTexture":{"index":17,"extensions":{"KHR_texture_transform":{"offset":[0,1],"scale":[1,-1]}}}},"normalTexture":{"index":15,"extensions":{"KHR_texture_transform":{"offset":[0,1],"scale":[1,-1]}}}},{"name":"cabinet","pbrMetallicRoughness":{"roughnessFactor":0.187,"baseColorTexture":{"index":19,"extensions":{"KHR_texture_transform":{"offset":[0,1],"scale":[1,-1]}}},"metallicRoughnessTexture":{"index":20,"extensions":{"KHR_texture_transform":{"offset":[0,1],"scale":[1,-1]}}}},"normalTexture":{"index":18,"extensions":{"KHR_texture_transform":{"offset":[0,1],"scale":[1,-1]}}}},{"name":"pillow","pbrMetallicRoughness":{"metallicFactor":0,"roughnessFactor":0.5,"baseColorTexture":{"index":22,"extensions":{"KHR_texture_transform":{"offset":[0,1],"scale":[1,-1]}}}},"normalTexture":{"index":21,"extensions":{"KHR_texture_transform":{"offset":[0,1],"scale":[1,-1]}}},"occlusionTexture":{"index":23,"extensions":{"KHR_texture_transform":{"offset":[0,1],"scale":[1,-1]}}}},{"name":"small-table","pbrMetallicRoughness":{"roughnessFactor":0.607,"baseColorTexture":{"index":25,"extensions":{"KHR_texture_transform":{"offset":[0,1],"scale":[1,-1]}}},"metallicRoughnessTexture":{"index":26,"extensions":{"KHR_texture_transform":{"offset":[0,1],"scale":[1,-1]}}}},"normalTexture":{"index":24,"extensions":{"KHR_texture_transform":{"offset":[0,1],"scale":[1,-1]}}}}],"meshes":[{"name":"Box001","primitives":[{"attributes":{"POSITION":0,"NORMAL":1,"TANGENT":2,"TEXCOORD_0":3},"indices":4,"material":0}]},{"name":"doors001","primitives":[{"attributes":{"POSITION":5,"NORMAL":6,"TANGENT":7,"TEXCOORD_0":8},"indices":9,"material":1}]},{"name":"glass001","primitives":[{"attributes":{"POSITION":10,"NORMAL":11,"TANGENT":12,"TEXCOORD_0":13},"indices":14,"material":2}]},{"name":"Object002","primitives":[{"attributes":{"POSITION":15,"NORMAL":16,"TANGENT":17,"TEXCOORD_0":18},"indices":19,"material":1}]},{"name":"Buttons_bot001","primitives":[{"attributes":{"POSITION":20,"NORMAL":21,"TANGENT":22,"TEXCOORD_0":23},"indices":24,"material":3}]},{"name":"Buttons_top001","primitives":[{"attributes":{"POSITION":25,"NORMAL":26,"TANGENT":27,"TEXCOORD_0":28},"indices":29,"material":3}]},{"name":"Panel001","primitives":[{"attributes":{"POSITION":30,"NORMAL":31,"TANGENT":32,"TEXCOORD_0":33},"indices":34,"material":3}]},{"name":"roof_new001","primitives":[{"attributes":{"POSITION":35,"NORMAL":36,"TANGENT":37,"TEXCOORD_0":38},"indices":39,"material":4}]},{"name":"Chandelier_01.002","primitives":[{"attributes":{"POSITION":40,"NORMAL":41,"TANGENT":42,"TEXCOORD_0":43},"indices":44,"material":5},{"attributes":{"POSITION":40,"NORMAL":41,"TANGENT":42,"TEXCOORD_0":43},"indices":45,"material":6}]},{"name":"modern_arm_chair_01","primitives":[{"attributes":{"POSITION":46,"NORMAL":47,"TANGENT":48,"TEXCOORD_0":49},"indices":50,"material":7},{"attributes":{"POSITION":46,"NORMAL":47,"TANGENT":48,"TEXCOORD_0":49},"indices":51,"material":8}]},{"name":"modern_wooden_cabinet_door_l","primitives":[{"attributes":{"POSITION":52,"NORMAL":53,"TANGENT":54,"TEXCOORD_0":55},"indices":56,"material":9}]},{"name":"modern_wooden_cabinet_door_r","primitives":[{"attributes":{"POSITION":57,"NORMAL":58,"TANGENT":59,"TEXCOORD_0":60},"indices":61,"material":9}]},{"name":"modern_wooden_cabinet_body","primitives":[{"attributes":{"POSITION":62,"NORMAL":63,"TANGENT":64,"TEXCOORD_0":65},"indices":66,"material":9}]},{"name":"throw_pillows_01_pillow01","primitives":[{"attributes":{"POSITION":67,"NORMAL":68,"TANGENT":69,"TEXCOORD_0":70},"indices":71,"material":10}]},{"name":"throw_pillows_01_pillow02","primitives":[{"attributes":{"POSITION":72,"NORMAL":73,"TANGENT":74,"TEXCOORD_0":75},"indices":76,"material":10}]},{"name":"WoodenTable_02","primitives":[{"attributes":{"POSITION":77,"NORMAL":78,"TANGENT":79,"TEXCOORD_0":80},"indices":81,"material":11}]}],"scene":0,"scenes":[{"name":"elevator","nodes":[11,12,13,14,15,18,21,22,23]}],"textures":[{"source":0},{"source":1},{"source":2},{"source":3},{"source":4},{"source":5},{"source":6},{"source":7},{"source":8},{"source":9},{"source":10},{"source":11},{"source":12},{"source":13},{"source":14},{"source":15},{"source":16},{"source":17},{"source":18},{"source":19},{"source":20},{"source":21},{"source":22},{"source":23},{"source":24},{"source":25},{"source":26}]}