{"asset":{"version":"2.0","generator":"Unity 2022.2.14f1 glTFast 5.0.0"},"nodes":[{"name":"Box001","mesh":0,"translation":[11.2096472,2.017354,5.187657],"rotation":[-0.7071068,0,0,0.7071067],"scale":[0.314454764,0.314454734,0.314454734]},{"name":"elevator-door-left","mesh":1,"translation":[11.742,2.0082314,4.023936],"rotation":[-0.7071068,0,0,0.7071067],"scale":[0.314454764,0.314454734,0.314454734]},{"name":"elevator-lights","mesh":2,"translation":[11.2103157,3.61417484,5.11462641],"rotation":[-0.7071068,0,0,0.7071067],"scale":[0.314454764,0.314454734,0.314454734]},{"name":"elevator-door-right","mesh":3,"translation":[10.805,2.00839567,4.023889],"rotation":[-0.7071068,0,0,0.7071067],"scale":[0.314454764,0.314454734,0.314454734]},{"name":"open/close -in","mesh":4,"translation":[0.02470205,0.007,-0.788]},{"name":"Buttons-in","mesh":5,"translation":[0.0377127044,-0.014,-0.079]},{"name":"Panel-inner","children":[4,5],"mesh":6,"translation":[10.354,2.4604454,4.351],"rotation":[-0.7071068,0,0,0.7071067],"scale":[0.314454764,0.314454734,0.314454734]},{"name":"roof","mesh":7,"translation":[11.2094755,3.628119,5.0588336],"rotation":[-0.7071068,0,0,0.7071067],"scale":[0.314454764,0.314454734,0.314454734]},{"name":"open/close -out","mesh":4,"translation":[0.02470205,0.007,-0.788]},{"name":"Buttons-out","mesh":5,"translation":[0.0377127044,-0.014,-0.079]},{"name":"Panel-outer","children":[8,9],"mesh":6,"translation":[10.19,2.4604454,3.897],"rotation":[-0.5,0.5,0.5,0.5],"scale":[0.314454764,0.314454734,0.314454734]},{"name":"elevator","children":[0,1,2,3,6,7,10],"translation":[-23.4605846,0,-3.425036]}],"extensionsRequired":["KHR_texture_transform"],"extensionsUsed":["KHR_texture_transform"],"buffers":[{"uri":"elevator.bin","byteLength":77192}],"bufferViews":[{"buffer":0,"byteLength":2280},{"buffer":0,"byteLength":14880,"byteOffset":2280,"byteStride":48},{"buffer":0,"byteLength":624,"byteOffset":17160},{"buffer":0,"byteLength":3360,"byteOffset":17784,"byteStride":48},{"buffer":0,"byteLength":180,"byteOffset":21144},{"buffer":0,"byteLength":1104,"byteOffset":21324,"byteStride":48},{"buffer":0,"byteLength":624,"byteOffset":22428},{"buffer":0,"byteLength":3360,"byteOffset":23052,"byteStride":48},{"buffer":0,"byteLength":1152,"byteOffset":26412},{"buffer":0,"byteLength":5472,"byteOffset":27564,"byteStride":48},{"buffer":0,"byteLength":4674,"byteOffset":33036},{"buffer":0,"byteLength":23952,"byteOffset":37712,"byteStride":48},{"buffer":0,"byteLength":1296,"byteOffset":61664},{"buffer":0,"byteLength":6048,"byteOffset":62960,"byteStride":48},{"buffer":0,"byteLength":1176,"byteOffset":69008},{"buffer":0,"byteLength":7008,"byteOffset":70184,"byteStride":48}],"accessors":[{"bufferView":1,"componentType":5126,"count":310,"type":"VEC3","max":[2.88439083,3.82039928,5.07932949],"min":[-2.88082981,-3.32880116,-4.359803]},{"bufferView":1,"componentType":5126,"count":310,"type":"VEC3","byteOffset":12},{"bufferView":1,"componentType":5126,"count":310,"type":"VEC4","byteOffset":24},{"bufferView":1,"componentType":5126,"count":310,"type":"VEC2","byteOffset":40},{"bufferView":0,"componentType":5123,"count":1140,"type":"SCALAR"},{"bufferView":3,"componentType":5126,"count":70,"type":"VEC3","max":[1.20479536,0.0627985,4.12528229],"min":[-0.698132038,-0.0560965538,-4.366007]},{"bufferView":3,"componentType":5126,"count":70,"type":"VEC3","byteOffset":12},{"bufferView":3,"componentType":5126,"count":70,"type":"VEC4","byteOffset":24},{"bufferView":3,"componentType":5126,"count":70,"type":"VEC2","byteOffset":40},{"bufferView":2,"componentType":5123,"count":312,"type":"SCALAR"},{"bufferView":5,"componentType":5126,"count":23,"type":"VEC3","max":[0.8708472,0.9098718,0.016711235],"min":[-0.871546745,-0.890772343,-0.01127243]},{"bufferView":5,"componentType":5126,"count":23,"type":"VEC3","byteOffset":12},{"bufferView":5,"componentType":5126,"count":23,"type":"VEC4","byteOffset":24},{"bufferView":5,"componentType":5126,"count":23,"type":"VEC2","byteOffset":40},{"bufferView":4,"componentType":5123,"count":90,"type":"SCALAR"},{"bufferView":7,"componentType":5126,"count":70,"type":"VEC3","max":[0.697493553,0.06265092,4.12476063],"min":[-1.20543385,-0.0562441349,-4.36652851]},{"bufferView":7,"componentType":5126,"count":70,"type":"VEC3","byteOffset":12},{"bufferView":7,"componentType":5126,"count":70,"type":"VEC4","byteOffset":24},{"bufferView":7,"componentType":5126,"count":70,"type":"VEC2","byteOffset":40},{"bufferView":6,"componentType":5123,"count":312,"type":"SCALAR"},{"bufferView":9,"componentType":5126,"count":114,"type":"VEC3","max":[0.009899139,0.339673281,0.0371999741],"min":[-0.0126419067,-0.337633252,-0.0387992859]},{"bufferView":9,"componentType":5126,"count":114,"type":"VEC3","byteOffset":12},{"bufferView":9,"componentType":5126,"count":114,"type":"VEC4","byteOffset":24},{"bufferView":9,"componentType":5126,"count":114,"type":"VEC2","byteOffset":40},{"bufferView":8,"componentType":5123,"count":576,"type":"SCALAR"},{"bufferView":11,"componentType":5126,"count":499,"type":"VEC3","max":[0.0154266357,0.334429979,0.367789268],"min":[-0.02003479,-0.2894683,-0.43469286]},{"bufferView":11,"componentType":5126,"count":499,"type":"VEC3","byteOffset":12},{"bufferView":11,"componentType":5126,"count":499,"type":"VEC4","byteOffset":24},{"bufferView":11,"componentType":5126,"count":499,"type":"VEC2","byteOffset":40},{"bufferView":10,"componentType":5123,"count":2337,"type":"SCALAR"},{"bufferView":13,"componentType":5126,"count":126,"type":"VEC3","max":[0.0379962921,0.5338582,1.21989727],"min":[-0.029882431,-0.5301608,-1.16879368]},{"bufferView":13,"componentType":5126,"count":126,"type":"VEC3","byteOffset":12},{"bufferView":13,"componentType":5126,"count":126,"type":"VEC4","byteOffset":24},{"bufferView":13,"componentType":5126,"count":126,"type":"VEC2","byteOffset":40},{"bufferView":12,"componentType":5123,"count":648,"type":"SCALAR"},{"bufferView":15,"componentType":5126,"count":146,"type":"VEC3","max":[2.84240913,3.385072,0.103879929],"min":[-2.837757,-3.75553584,-0.09687519]},{"bufferView":15,"componentType":5126,"count":146,"type":"VEC3","byteOffset":12},{"bufferView":15,"componentType":5126,"count":146,"type":"VEC4","byteOffset":24},{"bufferView":15,"componentType":5126,"count":146,"type":"VEC2","byteOffset":40},{"bufferView":14,"componentType":5123,"count":588,"type":"SCALAR"}],"images":[{"name":"Box_normal.png","uri":"Box_normal.png","mimeType":"image/png"},{"name":"Box_albedo(1).jpg","uri":"Box_albedo(1).jpg","mimeType":"image/jpeg"},{"name":"Box_metallic.jpg","uri":"Box_metallic.jpg","mimeType":"image/jpeg"},{"name":"Default_normal.png","uri":"Default_normal.png","mimeType":"image/png"},{"name":"Default_albedo(4).jpg","uri":"Default_albedo(4).jpg","mimeType":"image/jpeg"},{"name":"Default_metallic.jpg","uri":"Default_metallic.jpg","mimeType":"image/jpeg"},{"name":"Panel_normal.png","uri":"Panel_normal.png","mimeType":"image/png"},{"name":"Panel_albedo.jpg","uri":"Panel_albedo.jpg","mimeType":"image/jpeg"},{"name":"Panel_metallic.jpg","uri":"Panel_metallic.jpg","mimeType":"image/jpeg"}],"materials":[{"name":"elevator box","pbrMetallicRoughness":{"baseColorTexture":{"index":1,"extensions":{"KHR_texture_transform":{"offset":[0,1],"scale":[1,-1]}}},"metallicRoughnessTexture":{"index":2,"extensions":{"KHR_texture_transform":{"offset":[0,1],"scale":[1,-1]}}}},"normalTexture":{"index":0,"extensions":{"KHR_texture_transform":{"offset":[0,1],"scale":[1,-1]}}},"occlusionTexture":{"index":2,"extensions":{"KHR_texture_transform":{"offset":[0,1],"scale":[1,-1]}}}},{"name":"default","pbrMetallicRoughness":{"roughnessFactor":0.263,"baseColorTexture":{"index":4,"extensions":{"KHR_texture_transform":{"offset":[0,1],"scale":[1,-1]}}},"metallicRoughnessTexture":{"index":5,"extensions":{"KHR_texture_transform":{"offset":[0,1],"scale":[1,-1]}}}},"normalTexture":{"index":3,"extensions":{"KHR_texture_transform":{"offset":[0,1],"scale":[1,-1]}}},"occlusionTexture":{"index":5,"extensions":{"KHR_texture_transform":{"offset":[0,1],"scale":[1,-1]}}}},{"name":"elevator light","pbrMetallicRoughness":{"metallicFactor":0,"roughnessFactor":0.5},"emissiveFactor":[1,1,1]},{"name":"panel","pbrMetallicRoughness":{"roughnessFactor":0.489,"baseColorTexture":{"index":7,"extensions":{"KHR_texture_transform":{"offset":[0,1],"scale":[1,-1]}}},"metallicRoughnessTexture":{"index":8,"extensions":{"KHR_texture_transform":{"offset":[0,1],"scale":[1,-1]}}}},"normalTexture":{"index":6,"extensions":{"KHR_texture_transform":{"offset":[0,1],"scale":[1,-1]}}},"occlusionTexture":{"index":8,"extensions":{"KHR_texture_transform":{"offset":[0,1],"scale":[1,-1]}}}},{"name":"rood","pbrMetallicRoughness":{"baseColorFactor":[0.380392134,0.254901946,0.164705843,1],"metallicFactor":0,"roughnessFactor":0.5}}],"meshes":[{"name":"Box001","primitives":[{"attributes":{"POSITION":0,"NORMAL":1,"TANGENT":2,"TEXCOORD_0":3},"indices":4,"material":0}]},{"name":"doors001","primitives":[{"attributes":{"POSITION":5,"NORMAL":6,"TANGENT":7,"TEXCOORD_0":8},"indices":9,"material":1}]},{"name":"glass001","primitives":[{"attributes":{"POSITION":10,"NORMAL":11,"TANGENT":12,"TEXCOORD_0":13},"indices":14,"material":2}]},{"name":"Object002","primitives":[{"attributes":{"POSITION":15,"NORMAL":16,"TANGENT":17,"TEXCOORD_0":18},"indices":19,"material":1}]},{"name":"Buttons_bot001","primitives":[{"attributes":{"POSITION":20,"NORMAL":21,"TANGENT":22,"TEXCOORD_0":23},"indices":24,"material":3}]},{"name":"Buttons_top001","primitives":[{"attributes":{"POSITION":25,"NORMAL":26,"TANGENT":27,"TEXCOORD_0":28},"indices":29,"material":3}]},{"name":"Panel001","primitives":[{"attributes":{"POSITION":30,"NORMAL":31,"TANGENT":32,"TEXCOORD_0":33},"indices":34,"material":3}]},{"name":"roof_new001","primitives":[{"attributes":{"POSITION":35,"NORMAL":36,"TANGENT":37,"TEXCOORD_0":38},"indices":39,"material":4}]}],"scene":0,"scenes":[{"name":"elevator","nodes":[11]}],"textures":[{"source":0},{"source":1},{"source":2},{"source":3},{"source":4},{"source":5},{"source":6},{"source":7},{"source":8}]}